<svg width="29" height="32" viewBox="0 0 29 32" fill="none" xmlns="http://www.w3.org/2000/svg">
<path d="M5.5 19.5C7.433 19.5 9 17.933 9 16C9 14.067 7.433 12.5 5.5 12.5C3.567 12.5 2 14.067 2 16C2 17.933 3.567 19.5 5.5 19.5Z" stroke="currentColor" stroke-width="2.6" stroke-linecap="round" stroke-linejoin="round"/>
<path d="M24.1667 9C26.0997 9 27.6667 7.433 27.6667 5.5C27.6667 3.567 26.0997 2 24.1667 2C22.2337 2 20.6667 3.567 20.6667 5.5C20.6667 7.433 22.2337 9 24.1667 9Z" stroke="currentColor" stroke-width="2.6" stroke-linecap="round" stroke-linejoin="round"/>
<path d="M24.1667 30C26.0997 30 27.6667 28.433 27.6667 26.5C27.6667 24.567 26.0997 23 24.1667 23C22.2337 23 20.6667 24.567 20.6667 26.5C20.6667 28.433 22.2337 30 24.1667 30Z" stroke="currentColor" stroke-width="2.6" stroke-linecap="round" stroke-linejoin="round"/>
<path d="M8.55002 17.7158L21.1165 24.7844" stroke="currentColor" stroke-width="2.6" stroke-linecap="round" stroke-linejoin="round"/>
<path d="M21.1165 7.21582L8.55002 14.2844" stroke="currentColor" stroke-width="2.6" stroke-linecap="round" stroke-linejoin="round"/>
</svg>
