<svg width="22" height="16" viewBox="0 0 22 16" fill="none" xmlns="http://www.w3.org/2000/svg">
<path fill-rule="evenodd" clip-rule="evenodd" d="M10.9998 14.3C6.91479 14.3 3.44222 11.6649 2.19428 8.00005C3.44222 4.33524 6.91479 1.70005 10.9998 1.70005C15.0858 1.70005 18.5574 4.3352 19.8053 8.00005C18.5574 11.6649 15.0858 14.3 10.9998 14.3ZM10.9998 0.300049C6.20835 0.300049 2.15297 3.4499 0.789967 7.79033C0.747094 7.92686 0.747094 8.07324 0.789967 8.20977C2.15297 12.5502 6.20835 15.7 10.9998 15.7C15.7923 15.7 19.8467 12.5502 21.2097 8.20977C21.2525 8.07324 21.2525 7.92686 21.2097 7.79033C19.8467 3.44994 15.7923 0.300049 10.9998 0.300049ZM9.37346 6.3737C9.80479 5.94237 10.3898 5.70005 10.9998 5.70005C11.6098 5.70005 12.1948 5.94237 12.6262 6.3737C13.0575 6.80504 13.2998 7.39005 13.2998 8.00005C13.2998 8.61005 13.0575 9.19506 12.6262 9.6264C12.1948 10.0577 11.6098 10.3 10.9998 10.3C10.3898 10.3 9.80479 10.0577 9.37346 9.6264C8.94213 9.19506 8.69981 8.61005 8.69981 8.00005C8.69981 7.39005 8.94213 6.80504 9.37346 6.3737ZM10.9998 4.30005C10.0185 4.30005 9.07739 4.68987 8.38351 5.38375C7.68962 6.07764 7.29981 7.01875 7.29981 8.00005C7.29981 8.98135 7.68962 9.92246 8.38351 10.6163C9.07739 11.3102 10.0185 11.7 10.9998 11.7C11.9811 11.7 12.9222 11.3102 13.6161 10.6163C14.31 9.92246 14.6998 8.98135 14.6998 8.00005C14.6998 7.01875 14.31 6.07764 13.6161 5.38375C12.9222 4.68987 11.9811 4.30005 10.9998 4.30005Z" fill="currentColor" fill-opacity="0.3"/>
</svg>
